<svg width="1200" height="100" viewBox="0 0 1200 100" xmlns="http://www.w3.org/2000/svg">
  <title>RealityLens footer</title>
  <defs>
    <linearGradient id="footerBg" x1="0%" y1="0%" x2="100%" y2="0%">
      <stop offset="0%" stop-color="#047857"/>
      <stop offset="50%" stop-color="#059669"/>
      <stop offset="100%" stop-color="#047857"/>
    </linearGradient>
    <linearGradient id="waveGrad" x1="0%" y1="0%" x2="100%" y2="0%">
      <stop offset="0%" stop-color="#065f46"/>
      <stop offset="50%" stop-color="#064e3b"/>
      <stop offset="100%" stop-color="#065f46"/>
    </linearGradient>
  </defs>

  <rect width="1200" height="100" fill="url(#footerBg)"/>

  <path d="M0,30 C200,60 400,10 600,35 C800,60 1000,15 1200,30 L1200,100 L0,100 Z"
        fill="url(#waveGrad)" opacity="0.6"/>

  <path d="M0,50 C150,25 350,65 600,45 C850,25 1050,60 1200,50 L1200,100 L0,100 Z"
        fill="#064e3b" opacity="0.5"/>

  <circle cx="100" cy="55" r="2" fill="#6ee7b7" opacity="0.4"/>
  <circle cx="320" cy="40" r="1.5" fill="#a7f3d0" opacity="0.3"/>
  <circle cx="580" cy="58" r="2" fill="#6ee7b7" opacity="0.4"/>
  <circle cx="840" cy="42" r="1.5" fill="#a7f3d0" opacity="0.3"/>
  <circle cx="1060" cy="55" r="2" fill="#6ee7b7" opacity="0.4"/>

  <text x="600" y="74" font-family="'Segoe UI', Arial, sans-serif" font-size="13" font-weight="500"
        fill="#d1fae5" text-anchor="middle" letter-spacing="3" opacity="0.9">DETECT  ·  VERIFY  ·  TRUST</text>

  <text x="600" y="92" font-family="'Segoe UI', Arial, sans-serif" font-size="10" font-weight="400"
        fill="#6ee7b7" text-anchor="middle" letter-spacing="1" opacity="0.6">realitylens.in</text>
</svg>
